<svg
      width="36"
      height="36"
      view-box="0 0 24 24"
      fill="none"
      xmlns="http://www.w3.org/2000/svg"
    >
      <g clip-path="url(#logo_small_svg__clip0_225_523)">
        <path
          d="M12.0708 24C18.6982 24 24.0708 18.6274 24.0708 12C24.0708 5.37258 18.6982 0 12.0708 0C5.44338 0 0.0708008 5.37258 0.0708008 12C0.0708008 18.6274 5.44338 24 12.0708 24Z"
          fill="#fb1f43"
        ></path>
        <path
          fill="#fff"
          d="m 16 9.1901 c 0.0011 -0.0242 0.0017 -0.0523 0.0017 -0.0804 c 0 -0.5783 -0.2391 -1.1002 -0.6244 -1.4726 l -0.0006 -0.0006 c -0.4033 -0.3701 -0.9439 -0.5968 -1.5368 -0.5968 c -0.036 0 -0.072 0.0011 -0.1074 0.0023 h 0.0051 h -3.0679 v 4.2953 h 3.0679 c 0.0304 0.0017 0.0664 0.0023 0.1024 0.0023 c 0.5929 0 1.1334 -0.2267 1.5384 -0.5985 l -0.0017 0.0017 c 0.3853 -0.3729 0.6249 -0.8949 0.6249 -1.4732 c 0 -0.0281 -0.0006 -0.0563 -0.0017 -0.0838 v 0.0039 z m 2.2725 0 c 0.0017 0.0427 0.0028 0.0922 0.0028 0.1423 c 0 1.1284 -0.4663 2.1482 -1.2167 2.8772 l -0.0011 0.0011 c -0.7712 0.7268 -1.8135 1.1734 -2.9599 1.1734 c -0.0602 0 -0.1198 -0.0011 -0.1794 -0.0034 h 0.0084 h -3.2597 v 1.1312 h 4.842 h 0.0118 c 0.1631 0 0.2953 0.1322 0.2953 0.2953 v 0.0124 v -0.0006 v 1.2274 v 0.0118 c 0 0.1631 -0.1322 0.2953 -0.2953 0.2953 c -0.0039 0 -0.0084 0 -0.0124 0 h 0.0006 h -4.842 v 1.8411 v 0.0101 c 0 0.0827 -0.0343 0.1575 -0.09 0.2104 c -0.0546 0.0534 -0.1294 0.0866 -0.2121 0.0866 c -0.0011 0 -0.0023 0 -0.0039 0 h -1.6009 c -0.0034 0 -0.0079 0 -0.0118 0 c -0.1631 0 -0.2953 -0.1322 -0.2953 -0.2953 c 0 -0.0039 0 -0.0084 0 -0.0124 v 0.0006 v -1.8411 h -2.1476 c -0.0034 0 -0.0079 0 -0.0118 0 c -0.1631 0 -0.2953 -0.1322 -0.2953 -0.2953 c 0 -0.0039 0 -0.0084 0 -0.0124 v 0.0006 v -1.2274 c 0 -0.0034 0 -0.0079 0 -0.0118 c 0 -0.1631 0.1322 -0.2953 0.2953 -0.2953 h 0.0124 h -0.0006 h 2.1476 v -1.1312 h -2.1476 c -0.0034 0 -0.0079 0 -0.0118 0 c -0.1631 0 -0.2953 -0.1322 -0.2953 -0.2953 c 0 -0.0039 0 -0.0084 0 -0.0124 v 0.0006 v -1.4287 c 0 -0.0011 0 -0.0023 0 -0.0034 c 0 -0.0827 0.0332 -0.1575 0.0866 -0.2121 c 0.0529 -0.0557 0.1277 -0.09 0.2104 -0.09 h 0.0107 h -0.0006 h 2.1476 v -6.03 c 0 -0.0034 0 -0.0079 0 -0.0118 c 0 -0.1631 0.1322 -0.2953 0.2953 -0.2953 h 0.0124 h -0.0006 h 5.1677 c 0.0512 -0.0023 0.1108 -0.0034 0.171 -0.0034 c 1.1464 0 2.1887 0.4466 2.9621 1.1756 l -0.0023 -0.0023 c 0.7504 0.7296 1.2161 1.7488 1.2161 2.8766 c 0 0.0495 -0.0011 0.099 -0.0028 0.1485 v -0.0073 z"
        />
      </g>
      <defs>
        <clipPath id="logo_small_svg__clip0_225_523">
          <rect width="63" height="24" fill="white"></rect>
        </clipPath>
      </defs>
    </svg>